<?xml version="1.0" encoding="utf-8"?>
<!-- Generator: Adobe Illustrator 19.0.0, SVG Export Plug-In . SVG Version: 6.00 Build 0)  -->
<svg version="1.1" id="圖層_1" xmlns="http://www.w3.org/2000/svg" xmlns:xlink="http://www.w3.org/1999/xlink" x="0px" y="0px"
	 viewBox="0 0 200 51.1" style="enable-background:new 0 0 200 51.1;" xml:space="preserve">
<style type="text/css">
	.st0{fill:#0700AC;}
	.st1{fill:#FFFFFF;stroke:#0700AC;stroke-miterlimit:10;}
	.st2{fill:#FF5E3B;}
</style>
<g id="XMLID_100_">
	<g id="XMLID_111_">
		<path id="XMLID_124_" class="st0" d="M72.6,12.9V9c0-0.9-0.8-1.1-1.7-1.1H43.6c-0.9,0-1.7,0.2-1.7,1.1v3.9h-2.7V9
			c0-3.2,2-3.6,4.4-3.6h12.4V1.7h2.7v3.8h12.3c2.4,0,4.4,0.4,4.4,3.6v3.9H72.6z M39.4,26.7h35.8v2.5h-3.8v15.4
			c0,3.6-2.2,4.6-5.1,4.6h-3.6v-2.6h3.6c1.4,0,2.4-0.4,2.4-2V29.2H39.4V26.7z M59.4,10.5c-0.5,1.3-1.1,2.4-1.8,3.5h14.1v2.5h-9.1
			l10,6.2L71,24.8l-13.3-8.3h-1.8c-3.6,4.4-8.5,7-14.7,8.4l-0.6-2.4c4.7-1.1,8.6-3,11.6-5.9h-9.4V14h11.6c0.9-1.3,1.7-2.8,2.4-4.4
			L59.4,10.5z"/>
		<polygon id="XMLID_123_" class="st0" points="79.3,36.5 87.1,32.3 87.1,14.8 80.4,14.8 82,4.5 84.8,4.8 83.6,12.2 87.1,12.2 
			87.1,1.6 89.8,1.6 89.8,12.2 94,12.2 94,14.8 89.8,14.8 89.8,30.8 94.3,28.4 95.6,30.6 89.8,33.7 89.8,48.3 87.1,48.3 87.1,35.1 
			80.6,38.6 		"/>
		<path id="XMLID_122_" class="st0" d="M108.2,46h3.5c1.3,0,2.4-0.5,2.4-2V12.8c0-1.6-1.1-2-2.4-2h-1.1c-1,15.6-3.1,27-5.4,37
			l-2.6-0.6c2.3-9.7,4.4-20.9,5.3-36.4h-4.4c-1.5,15.6-3.8,27-6.4,37l-2.6-0.6c2.4-9.7,4.8-20.9,6.1-36.4h-4.7L99,2.4l2.6,0.9
			l-1.8,4.9h11.9c2.8,0,5.1,1,5.1,4.6V44c0,3.5-2.3,4.5-5.1,4.5h-3.5V46z"/>
		<path id="XMLID_112_" class="st0" d="M120.8,12.4l9.6-10v46.4h-2.9V9.5l-4.4,4.6L120.8,12.4z M133.4,3.5h27.7V6h-12.5v4.8h7.3
			c2.6,0,4.7,0.6,4.7,3.7v13.7c0,3.2-2.1,3.7-4.7,3.7h-8.3c-0.6,2.5-1.5,4.8-2.7,6.9l16.4,7.7l-1.5,2.1l-16.3-7.7
			c-2.3,3.1-5.3,5.8-9.2,8l-1.6-2.2c3.4-2,6.1-4.3,8.2-7l-8-3.8l1.5-2.1l7.9,3.8c1-1.7,1.7-3.6,2.3-5.6h-6.2c-2.6,0-4.7-0.5-4.7-3.7
			V14.6c0-3.2,2.1-3.7,4.7-3.7h7.2V6h-12.4V3.5z M136.9,20.1h8.9v-6.6h-7.2c-1,0-1.7,0.1-1.7,1.1V20.1z M138.6,29.3h6.7
			c0.3-1.9,0.5-3.9,0.5-6.2v-0.6h-8.9v5.6C136.9,29.2,137.6,29.3,138.6,29.3z M157.8,28.2v-5.6h-9.1v0.6c0,2.2-0.2,4.2-0.5,6.2h7.8
			C157,29.3,157.8,29.2,157.8,28.2z M148.7,13.4v6.6h9.1v-5.5c0-1-0.8-1.1-1.7-1.1H148.7z"/>
	</g>
	<g id="XMLID_101_">
		<path id="XMLID_110_" class="st1" d="M58.6,33.3h-4.7v-1.2c0-0.7-0.5-1.2-1.1-1.2h-3.4c-0.6,0-1.1,0.5-1.1,1.2v1.2h-4.7
			c-1,0-1.9,0.9-1.9,2v11.1c0,1.1,0.9,2,1.9,2h15.1c1,0,1.9-0.9,1.9-2V35.3C60.5,34.2,59.6,33.3,58.6,33.3L58.6,33.3z"/>
		<path id="XMLID_103_" class="st0" d="M58.6,33.2h-4.7V32c0-0.7-0.5-1.2-1.1-1.2h-3.4c-0.6,0-1.1,0.5-1.1,1.2v1.2h-4.7
			c-1,0-1.9,0.9-1.9,2v11.1c0,1.1,0.9,2,1.9,2h15.1c1,0,1.9-0.9,1.9-2V35.2C60.5,34.1,59.6,33.2,58.6,33.2L58.6,33.2z M48.9,32
			c0-0.2,0.2-0.4,0.4-0.4h3.4c0.2,0,0.4,0.2,0.4,0.4v1.2h-4.2V32z M44.6,47.5h-1.1c-0.6,0-1.1-0.5-1.1-1.2V35.2
			c0-0.7,0.5-1.2,1.1-1.2h1.1V47.5z M59.7,46.3c0,0.7-0.5,1.2-1.1,1.2h-1.1V39c0-0.2-0.2-0.4-0.4-0.4c-0.2,0-0.4,0.2-0.4,0.4v8.5
			H45.3V34h13.2c0.6,0,1.1,0.5,1.1,1.2V46.3z M59.7,46.3 M57,37.4L57,37.4c-0.4,0-0.6-0.2-0.6-0.5v-0.1c0-0.3,0.2-0.5,0.5-0.5H57
			c0.3,0,0.5,0.2,0.5,0.5V37C57.5,37.2,57.3,37.4,57,37.4z"/>
		<circle id="XMLID_102_" class="st2" cx="57" cy="36.8" r="0.7"/>
	</g>
</g>
</svg>
